<svg width="84" height="56" viewBox="0 0 84 56" fill="none" xmlns="http://www.w3.org/2000/svg">
<path d="M1.64 56L0.84 50.32L5.64 49.2V7.2L0.6 6.72V0.719996H20.12C23.9067 0.719996 27.1067 1.36 29.72 2.64C32.3333 3.92 34.3067 5.65333 35.64 7.84C37.0267 10.0267 37.72 12.48 37.72 15.2C37.72 17.6533 37.2933 19.76 36.44 21.52C35.5867 23.2267 34.52 24.5867 33.24 25.6C31.96 26.56 30.7867 27.2533 29.72 27.68C31.5867 28.2667 33.2933 29.12 34.84 30.24C36.44 31.3067 37.6933 32.72 38.6 34.48C39.56 36.1867 40.04 38.3733 40.04 41.04C40.04 46.0533 38.4133 49.8133 35.16 52.32C31.9067 54.7733 27.64 56 22.36 56H1.64ZM13.8 49.04H21.8C23.9333 49.04 25.72 48.6933 27.16 48C28.6533 47.2533 29.7733 46.24 30.52 44.96C31.2667 43.6267 31.64 42.0533 31.64 40.24C31.64 37.52 30.6267 35.4133 28.6 33.92C26.6267 32.3733 23.9333 31.6 20.52 31.6H13.8V49.04ZM13.8 24.8H19.88C22.0667 24.8 23.8267 24.4 25.16 23.6C26.5467 22.8 27.5867 21.7333 28.28 20.4C28.9733 19.0667 29.32 17.6 29.32 16C29.32 13.3867 28.3867 11.36 26.52 9.92C24.7067 8.42666 22.0933 7.68 18.68 7.68H13.8V24.8ZM47.7319 56L46.8519 50.16L51.7319 49.36V7.2L46.9319 6.72V0.719996H64.6919L65.4919 6.64L59.8919 7.52V49.04H75.3319L78.2119 40.96H83.3319L81.7319 56H47.7319Z" fill="white"/>
</svg>
